<?xml version="1.0" standalone="no"?>
<!DOCTYPE svg PUBLIC "-//W3C//DTD SVG 20010904//EN"
 "http://www.w3.org/TR/2001/REC-SVG-20010904/DTD/svg10.dtd">
<svg version="1.0" xmlns="http://www.w3.org/2000/svg"
 width="800.000000pt" height="500.000000pt" viewBox="0 0 800.000000 500.000000"
 preserveAspectRatio="xMidYMid meet">
<metadata>
Created by potrace 1.16, written by Peter Selinger 2001-2019
</metadata>
<g transform="translate(0.000000,500.000000) scale(0.100000,-0.100000)"
fill="currentColor" stroke="none">
<path d="M4085 3840 c-125 -5 -405 -46 -415 -60 -3 -4 -59 -25 -125 -48 -305
-103 -513 -219 -836 -464 -64 -48 -120 -88 -125 -88 -5 0 -32 -20 -59 -44 -28
-24 -80 -67 -116 -97 -182 -148 -577 -529 -648 -624 -12 -16 -58 -68 -102
-115 -84 -91 -408 -468 -500 -585 -31 -38 -92 -112 -137 -164 -44 -52 -79 -98
-77 -102 5 -8 -32 -58 -55 -76 -9 -6 -39 -44 -67 -85 l-51 -74 33 -21 32 -21
24 31 c12 18 30 38 40 44 9 7 33 38 54 68 20 31 47 65 60 78 12 12 54 58 91
102 38 44 83 96 101 115 17 19 129 150 249 290 119 140 225 261 235 268 11 7
43 43 73 80 29 37 80 94 112 128 32 33 120 125 194 205 161 172 271 281 365
362 39 33 84 77 102 97 17 20 58 56 90 81 32 24 59 47 61 51 5 10 218 169 282
210 149 96 522 279 537 265 2 -3 44 8 91 25 155 52 281 70 507 68 149 0 231
-6 320 -21 130 -21 395 -104 485 -151 30 -15 64 -30 76 -32 12 -2 58 -23 103
-45 44 -23 81 -39 81 -36 0 10 264 -171 304 -209 22 -20 45 -36 51 -36 6 0 44
-28 85 -61 41 -34 91 -72 110 -84 106 -68 664 -618 771 -760 12 -16 50 -60 83
-96 90 -97 161 -192 139 -185 -52 15 -294 58 -299 53 -5 -5 203 -417 211 -417
2 0 43 75 91 168 48 92 95 176 105 187 18 20 17 22 -34 81 -59 69 -182 199
-273 289 -34 33 -120 123 -190 199 -71 77 -210 214 -310 305 -341 313 -346
317 -409 353 -16 9 -29 21 -28 26 2 10 -59 62 -72 62 -9 0 -279 181 -290 195
-6 7 -48 32 -95 55 -47 23 -87 45 -90 49 -13 16 -153 77 -273 117 -128 44
-447 107 -515 102 -15 -1 -85 -4 -157 -8z"/>
</g>
</svg>
